:SAMPLES-PER-SECOND 30
:FULLY-SPECIFIED
:DEGREES
171
root  59.5678 24.7785 3.31914 154.153 -0.84317 -176.864
RightUpLeg  -52.8903 -11.4175 1.29224
RightLeg  75.9402 -2.60818 -13.2493
RightFoot  2.36085 0.529544 -4.33373
RightToes  0.000482159 0.542163 -0.142577
Spine  43.195 -3.14041 8.86178
Spine1  -0.626464 -0.582718 -0.277115
HEad  -21.3915 3.8872 -2.93622
LeftShoulder1  10.3471 -15.3127 -48.0035
LeftArm  -1.19416 2.57986 -25.7745
LeftForeArm  91.3203 -76.7486 -35.4231
LeftHand  -0.25398 0.0180481 5.50724
RightShoulder  5.75592 10.5835 34.898
RightArm  1.0348 -3.90379 37.304
RightForeArm  49.626 73.883 35.1331
RightHand  -1.79818 4.1697 -21.9118
LeftUpLeg  -54.1656 5.9258 4.42466
LeftLeg  76.9038 1.86875 10.7556
LeftFoot  2.21131 -0.277164 2.12139
LeftToes  1.06246e-005 4.65855e-005 -8.18503e-006
172
root  59.5695 24.782 3.30631 154.256 -0.884232 -176.914
RightUpLeg  -52.9993 -11.5771 1.26995
RightLeg  75.9702 -2.57239 -13.1234
RightFoot  2.3101 0.527973 -4.30928
RightToes  0.000482159 0.542163 -0.142577
Spine  43.3808 -3.17759 8.84473
Spine1  -0.954568 -0.607572 -0.322222
HEad  -20.9455 3.78232 -2.75732
LeftShoulder1  10.3162 -15.2938 -47.9068
LeftArm  -1.16987 2.79491 -25.8167
LeftForeArm  90.2226 -76.6743 -35.3531
LeftHand  -0.25398 0.0180481 5.50724
RightShoulder  5.76671 10.5823 34.9768
RightArm  1.59995 -3.92758 36.9072
RightForeArm  48.7806 73.8007 35.0783
RightHand  -2.13734 5.27066 -23.3307
LeftUpLeg  -54.2586 6.05022 4.32181
LeftLeg  76.9058 1.848 10.6559
LeftFoot  2.17586 -0.281711 2.18047
LeftToes  1.06246e-005 4.65855e-005 -8.18503e-006
173
root  59.5704 24.7889 3.30156 154.23 -0.911865 -176.882
RightUpLeg  -52.9422 -11.7624 1.30216
RightLeg  75.9565 -2.54665 -12.9948
RightFoot  2.25556 0.526001 -4.27565
RightToes  0.000482159 0.542163 -0.142577
Spine  43.5971 -3.238 9.0097
Spine1  -1.12623 -0.569374 -0.424652
HEad  -20.6477 3.56656 -2.80647
LeftShoulder1  10.343 -15.3626 -47.8555
LeftArm  -1.0579 2.82072 -25.8226
LeftForeArm  89.2238 -76.4642 -34.7578
LeftHand  -0.25398 0.0180481 5.50724
RightShoulder  5.73682 10.4892 35.0347
RightArm  1.8733 -3.99082 36.6865
RightForeArm  47.7335 73.6875 34.9754
RightHand  -2.47225 6.25209 -24.684
LeftUpLeg  -54.2189 6.12721 4.31942
LeftLeg  76.8985 1.83023 10.5615
LeftFoot  2.13509 -0.282419 2.18271
LeftToes  1.06246e-005 4.65855e-005 -8.18503e-006
174
root  59.5705 24.7933 3.29813 154.223 -0.967499 -176.871
RightUpLeg  -52.9257 -11.9689 1.31149
RightLeg  75.9586 -2.52339 -12.8941
RightFoot  2.20199 0.536272 -4.38389
RightToes  0.000482159 0.542163 -0.142577
Spine  43.7127 -3.3015 9.07596
Spine1  -1.14583 -0.600724 -0.440582
HEad  -20.4059 3.38932 -2.8663
LeftShoulder1  10.3558 -15.4046 -47.8077
LeftArm  -1.04327 2.84008 -25.8539
LeftForeArm  89.0401 -76.3461 -34.3631
LeftHand  -0.25398 0.0180481 5.50724
RightShoulder  5.72553 10.474 34.9993
RightArm  1.82247 -4.05412 36.8411
RightForeArm  47.1167 73.5615 34.7255
RightHand  -2.67444 6.82906 -25.4133
LeftUpLeg  -54.2048 6.11247 4.29127
LeftLeg  76.8861 1.82696 10.5335
LeftFoot  2.11709 -0.283398 2.19201
LeftToes  1.06246e-005 4.65855e-005 -8.18503e-006
175
root  59.5763 24.7928 3.29301 154.301 -1.04262 -176.956
RightUpLeg  -53.0386 -12.1304 1.25481
RightLeg  75.9977 -2.49876 -12.8263
RightFoot  2.15895 0.555885 -4.57053
RightToes  0.000482159 0.542163 -0.142577
Spine  43.7797 -3.31487 8.86507
Spine1  -1.19585 -0.736884 -0.248401
HEad  -20.0751 3.37605 -2.70829
LeftShoulder1  10.3338 -15.3445 -47.8589
LeftArm  -0.987284 3.0515 -25.8916
LeftForeArm  89.2726 -76.4309 -34.6269
LeftHand  -0.25398 0.0180481 5.50724
RightShoulder  5.74872 10.5757 34.8699
RightArm  1.74288 -4.06625 37.1838
RightForeArm  46.7972 73.4169 34.3494
RightHand  -2.81667 7.26075 -25.8335
LeftUpLeg  -54.2772 6.03147 4.18095
LeftLeg  76.8677 1.84023 10.5811
LeftFoot  2.13698 -0.284772 2.21019
LeftToes  1.06246e-005 4.65855e-005 -8.18503e-006
176
root  59.5864 24.7913 3.2895 154.39 -1.08742 -177.078
RightUpLeg  -53.1638 -12.1929 1.17657
RightLeg  76.0358 -2.4798 -12.782
RightFoot  2.12476 0.563058 -4.63237
RightToes  0.000482159 0.542163 -0.142577
Spine  43.8901 -3.26877 8.57037
Spine1  -1.3452 -0.848917 -0.00763163
HEad  -19.6586 3.41671 -2.41186
LeftShoulder1  10.3241 -15.2862 -47.9636
LeftArm  -0.833284 3.35851 -25.9047
LeftForeArm  89.4582 -76.5571 -35.0571
LeftHand  -0.25398 0.0180481 5.50724
RightShoulder  5.75342 10.6369 34.7283
RightArm  1.8314 -4.01985 37.4512
RightForeArm  46.2783 73.2479 33.9576
RightHand  -2.97814 7.71183 -26.3542
LeftUpLeg  -54.3485 5.95149 4.07064
LeftLeg  76.843 1.86102 10.6596
LeftFoot  2.17825 -0.282666 2.17693
LeftToes  1.06246e-005 4.65855e-005 -8.18503e-006
177
root  59.596 24.7927 3.28918 154.425 -1.08469 -177.158
RightUpLeg  -53.2068 -12.1867 1.13317
RightLeg  76.0432 -2.4712 -12.7518
RightFoot  2.10084 0.558785 -4.53563
RightToes  0.000482159 0.542163 -0.142577
Spine  44.0213 -3.23134 8.48158
Spine1  -1.49751 -0.83113 -0.0424754
HEad  -19.2403 3.30183 -2.17066
LeftShoulder1  10.3422 -15.359 -47.8609
LeftArm  -0.739896 3.58235 -25.9995
LeftForeArm  89.6198 -76.5391 -34.9592
LeftHand  -0.25398 0.0180481 5.50724
RightShoulder  5.71623 10.5539 34.7047
RightArm  1.95175 -4.009 37.5855
RightForeArm  45.8022 73.1509 33.7808
RightHand  -3.08165 7.95791 -26.7513
LeftUpLeg  -54.356 5.90833 4.03493
LeftLeg  76.817 1.87879 10.7214
LeftFoot  2.20844 -0.275556 2.06849
LeftToes  1.06246e-005 4.65855e-005 -8.18503e-006
178
root  59.603 24.7961 3.29013 154.439 -1.07536 -177.196
RightUpLeg  -53.2185 -12.1897 1.11607
RightLeg  76.0381 -2.46654 -12.7217
RightFoot  2.09311 0.553381 -4.43809
RightToes  0.000482159 0.542163 -0.142577
Spine  44.1412 -3.26481 8.57298
Spine1  -1.63436 -0.766273 -0.344416
HEad  -18.8079 3.07934 -2.02243
LeftShoulder1  10.3479 -15.5008 -47.5242
LeftArm  -0.746543 3.76464 -26.2412
LeftForeArm  89.8879 -76.4659 -34.6368
LeftHand  -0.25398 0.0180481 5.50724
RightShoulder  5.67782 10.435 34.775
RightArm  2.00631 -4.11858 37.6384
RightForeArm  45.9227 73.214 33.9417
RightHand  -3.05944 7.88651 -26.7013
LeftUpLeg  -54.347 5.87569 4.03494
LeftLeg  76.7959 1.89043 10.7578
LeftFoot  2.21729 -0.267831 1.95306
LeftToes  1.06246e-005 4.65855e-005 -8.18503e-006
179
root  59.6064 24.7986 3.29116 154.464 -1.09569 -177.218
RightUpLeg  -53.246 -12.234 1.10046
RightLeg  76.0378 -2.46372 -12.6918
RightFoot  2.09289 0.55312 -4.43424
RightToes  0.000482159 0.542163 -0.142577
Spine  44.3116 -3.33287 8.59136
Spine1  -1.8593 -0.799277 -0.468699
HEad  -18.3161 2.99458 -1.93247
LeftShoulder1  10.3255 -15.5328 -47.3383
LeftArm  -0.659284 3.99131 -26.4393
LeftForeArm  90.2953 -76.5389 -34.8294
LeftHand  -0.25398 0.0180481 5.50724
RightShoulder  5.6611 10.4229 34.6918
RightArm  2.15503 -4.28989 37.654
RightForeArm  46.4249 73.345 34.2182
RightHand  -2.98171 7.71685 -26.3751
LeftUpLeg  -54.3644 5.81527 4.01927
LeftLeg  76.781 1.89899 10.7851
LeftFoot  2.22406 -0.265059 1.91713
LeftToes  1.06246e-005 4.65855e-005 -8.18503e-006
180
root  59.6046 24.8018 3.29123 154.478 -1.13109 -177.2
RightUpLeg  -53.2488 -12.29 1.10741
RightLeg  76.0255 -2.46366 -12.6803
RightFoot  2.08747 0.555274 -4.478
RightToes  0.000482159 0.542163 -0.142577
Spine  44.5544 -3.35963 8.47352
Spine1  -2.1604 -0.922401 -0.157181
HEad  -17.8306 3.02824 -1.91145
LeftShoulder1  10.3049 -15.421 -47.5266
LeftArm  -0.336793 4.13895 -26.4089
LeftForeArm  90.787 -76.7034 -35.3534
LeftHand  -0.25398 0.0180481 5.50724
RightShoulder  5.63839 10.4945 34.3261
RightArm  2.45358 -4.40473 37.6813
RightForeArm  46.7705 73.4077 34.3271
RightHand  -2.90874 7.57662 -26.0239
LeftUpLeg  -54.3796 5.73478 4.01902
LeftLeg  76.7679 1.90673 10.8095
LeftFoot  2.24132 -0.267049 1.95769
LeftToes  1.06246e-005 4.65855e-005 -8.18503e-006
181
root  59.6016 24.8093 3.28855 154.496 -1.15947 -177.143
RightUpLeg  -53.2372 -12.3406 1.14498
RightLeg  76.0001 -2.46365 -12.6747
RightFoot  2.08464 0.557644 -4.53156
RightToes  0.000482159 0.542163 -0.142577
Spine  44.7426 -3.34096 8.38538
Spine1  -2.38355 -1.01206 0.268927
HEad  -17.4234 2.86698 -1.91885
LeftShoulder1  10.3031 -15.3135 -47.7943
LeftArm  0.129575 4.09354 -26.2766
LeftForeArm  91.0635 -76.742 -35.4482
LeftHand  -0.25398 0.0180481 5.50724
RightShoulder  5.59964 10.5476 33.9021
RightArm  2.66146 -4.47754 37.7396
RightForeArm  47.0807 73.4449 34.3666
RightHand  -2.80482 7.33791 -25.5825
LeftUpLeg  -54.3895 5.6722 4.05124
LeftLeg  76.7528 1.9123 10.8244
LeftFoot  2.25509 -0.26858 1.9935
LeftToes  1.06246e-005 4.65855e-005 -8.18503e-006
182
root  59.6007 24.8188 3.27799 154.588 -1.18929 -177.124
RightUpLeg  -53.3172 -12.4088 1.16391
RightLeg  76 -2.455 -12.6345
RightFoot  2.08361 0.561219 -4.6069
RightToes  0.000482159 0.542163 -0.142577
Spine  44.7413 -3.32633 8.4087
Spine1  -2.45351 -1.01022 0.361847
HEad  -17.0565 2.43322 -1.83502
LeftShoulder1  10.306 -15.3207 -47.7894
LeftArm  0.565094 3.98701 -26.266
LeftForeArm  90.9035 -76.6515 -35.1336
LeftHand  -0.25398 0.0180481 5.50724
RightShoulder  5.57377 10.5548 33.6993
RightArm  2.61688 -4.61126 37.7707
RightForeArm  47.6481 73.5729 34.6289
RightHand  -2.66501 6.96451 -25.0625
LeftUpLeg  -54.4623 5.64589 4.04443
LeftLeg  76.7408 1.91466 10.8316
LeftFoot  2.2497 -0.266667 1.97802
LeftToes  1.06246e-005 4.65855e-005 -8.18503e-006
183
root  59.6032 24.8246 3.26119 154.772 -1.22023 -177.181
RightUpLeg  -53.5203 -12.4886 1.14896
RightLeg  76.0363 -2.43326 -12.575
RightFoot  2.06492 0.564307 -4.67409
RightToes  0.000482159 0.542163 -0.142577
Spine  44.5931 -3.32998 8.48401
Spine1  -2.47222 -0.94372 0.0862501
HEad  -16.6782 2.07293 -1.62889
LeftShoulder1  10.3093 -15.4288 -47.5276
LeftArm  0.831228 4.01184 -26.3747
LeftForeArm  90.5175 -76.6088 -35.0468
LeftHand  -0.25398 0.0180481 5.50724
RightShoulder  5.57377 10.5439 33.73
RightArm  2.45455 -4.82871 37.7135
RightForeArm  48.1654 73.7601 35.1025
RightHand  -2.54462 6.58362 -24.7028
LeftUpLeg  -54.6292 5.64869 3.96425
LeftLeg  76.7404 1.9159 10.8372
LeftFoot  2.23234 -0.263405 1.94382
LeftToes  1.06246e-005 4.65855e-005 -8.18503e-006
184
root  59.605 24.8264 3.24799 154.969 -1.21773 -177.238
RightUpLeg  -53.7372 -12.5112 1.16261
RightLeg  76.0592 -2.42443 -12.559
RightFoot  2.03473 0.563511 -4.6766
RightToes  0.000482159 0.542163 -0.142577
Spine  44.4571 -3.33063 8.59873
Spine1  -2.55887 -0.844848 -0.281324
HEad  -16.3256 2.06768 -1.41998
LeftShoulder1  10.3232 -15.5795 -47.2089
LeftArm  0.80546 4.15153 -26.4408
LeftForeArm  90.2344 -76.6342 -35.1971
LeftHand  -0.25398 0.0180481 5.50724
RightShoulder  5.58592 10.527 33.8634
RightArm  2.31423 -5.07263 37.5889
RightForeArm  48.348 73.8975 35.512
RightHand  -2.44634 6.2359 -24.4624
LeftUpLeg  -54.8225 5.68216 3.89795
LeftLeg  76.7484 1.91536 10.8364
LeftFoot  2.22162 -0.261621 1.93477
LeftToes  1.06246e-005 4.65855e-005 -8.18503e-006
185
root  59.6046 24.8289 3.24417 155.109 -1.16933 -177.232
RightUpLeg  -53.8775 -12.4392 1.22734
RightLeg  76.0382 -2.43619 -12.5905
RightFoot  2.03835 0.56032 -4.63418
RightToes  0.000482159 0.542163 -0.142577
Spine  44.4308 -3.32354 8.7544
Spine1  -2.73062 -0.755298 -0.51076
HEad  -16.0333 2.26801 -1.31341
LeftShoulder1  10.3368 -15.698 -46.974
LeftArm  0.418058 4.26975 -26.3586
LeftForeArm  90.0395 -76.5827 -35.0413
LeftHand  -0.25398 0.0180481 5.50724
RightShoulder  5.6064 10.5279 34.0053
RightArm  2.17958 -5.31487 37.4781
RightForeArm  48.4798 73.9753 35.7418
RightHand  -2.35592 5.9683 -24.1245
LeftUpLeg  -54.9661 5.76249 3.90873
LeftLeg  76.7522 1.91147 10.8171
LeftFoot  2.22334 -0.261763 1.95778
LeftToes  1.06246e-005 4.65855e-005 -8.18503e-006
